{
  "accessors": [
    {
      "bufferView": 2,
      "componentType": 5126,
      "count": 496,
      "max": [
        0.4574284851551056,
        0.15748049318790436,
        0.1574803590774536
      ],
      "min": [
        -0.4574284553527832,
        -0.1574803739786148,
        -0.15748044848442078
      ],
      "type": "VEC3"
    },
    {
      "bufferView": 2,
      "byteOffset": 5952,
      "componentType": 5126,
      "count": 496,
      "max": [
        1.0,
        1.0,
        1.0
      ],
      "min": [
        -1.0,
        -1.0,
        -1.0
      ],
      "type": "VEC3"
    },
    {
      "bufferView": 3,
      "componentType": 5126,
      "count": 496,
      "max": [
        0.7228326797485352,
        1.0,
        0.9999987483024597,
        1.0
      ],
      "min": [
        -0.7228317856788635,
        -1.0,
        -0.9999946355819702,
        -1.0
      ],
      "type": "VEC4"
    },
    {
      "bufferView": 1,
      "componentType": 5126,
      "count": 496,
      "max": [
        0.8709006905555725,
        0.9940918684005737
      ],
      "min": [
        0.004497051239013672,
        0.005421817302703857
      ],
      "type": "VEC2"
    },
    {
      "bufferView": 1,
      "byteOffset": 3968,
      "componentType": 5126,
      "count": 496,
      "max": [
        0.8709006905555725,
        0.9940918684005737
      ],
      "min": [
        0.004497051239013672,
        0.005421817302703857
      ],
      "type": "VEC2"
    },
    {
      "bufferView": 1,
      "byteOffset": 7936,
      "componentType": 5126,
      "count": 496,
      "max": [
        0.8709006905555725,
        0.9940918684005737
      ],
      "min": [
        0.004497051239013672,
        0.005421817302703857
      ],
      "type": "VEC2"
    },
    {
      "bufferView": 0,
      "componentType": 5125,
      "count": 2016,
      "type": "SCALAR"
    },
    {
      "bufferView": 2,
      "byteOffset": 11904,
      "componentType": 5126,
      "count": 496,
      "max": [
        0.4574284851551056,
        0.15748049318790436,
        0.1574803590774536
      ],
      "min": [
        -0.4574284553527832,
        -0.1574803739786148,
        -0.15748044848442078
      ],
      "type": "VEC3"
    },
    {
      "bufferView": 2,
      "byteOffset": 17856,
      "componentType": 5126,
      "count": 496,
      "max": [
        1.0,
        1.0,
        1.0
      ],
      "min": [
        -1.0,
        -1.0,
        -1.0
      ],
      "type": "VEC3"
    },
    {
      "bufferView": 3,
      "byteOffset": 7936,
      "componentType": 5126,
      "count": 496,
      "max": [
        0.7228326797485352,
        1.0,
        0.9999987483024597,
        1.0
      ],
      "min": [
        -0.7228317856788635,
        -1.0,
        -0.9999946355819702,
        -1.0
      ],
      "type": "VEC4"
    },
    {
      "bufferView": 1,
      "byteOffset": 11904,
      "componentType": 5126,
      "count": 496,
      "max": [
        0.8709006905555725,
        0.9940918684005737
      ],
      "min": [
        0.004497051239013672,
        0.005421817302703857
      ],
      "type": "VEC2"
    },
    {
      "bufferView": 1,
      "byteOffset": 15872,
      "componentType": 5126,
      "count": 496,
      "max": [
        0.8709006905555725,
        0.9940918684005737
      ],
      "min": [
        0.004497051239013672,
        0.005421817302703857
      ],
      "type": "VEC2"
    },
    {
      "bufferView": 1,
      "byteOffset": 19840,
      "componentType": 5126,
      "count": 496,
      "max": [
        0.8709006905555725,
        0.9940918684005737
      ],
      "min": [
        0.004497051239013672,
        0.005421817302703857
      ],
      "type": "VEC2"
    },
    {
      "bufferView": 0,
      "byteOffset": 8064,
      "componentType": 5125,
      "count": 2016,
      "type": "SCALAR"
    }
  ],
  "asset": {
    "extras": {
      "author": "plaggy (https://sketchfab.com/plaggy)",
      "license": "CC-BY-4.0 (http://creativecommons.org/licenses/by/4.0/)",
      "source": "https://sketchfab.com/3d-models/cc0-pill-4892b8f61b0c4b27a65b0dfd489d6af5",
      "title": "CC0 - Pill"
    },
    "generator": "Sketchfab-13.47.0",
    "version": "2.0"
  },
  "bufferViews": [
    {
      "buffer": 0,
      "byteLength": 16128,
      "name": "floatBufferViews",
      "target": 34963
    },
    {
      "buffer": 0,
      "byteLength": 23808,
      "byteOffset": 16128,
      "byteStride": 8,
      "name": "floatBufferViews",
      "target": 34962
    },
    {
      "buffer": 0,
      "byteLength": 23808,
      "byteOffset": 39936,
      "byteStride": 12,
      "name": "floatBufferViews",
      "target": 34962
    },
    {
      "buffer": 0,
      "byteLength": 15872,
      "byteOffset": 63744,
      "byteStride": 16,
      "name": "floatBufferViews",
      "target": 34962
    }
  ],
  "buffers": [
    {
      "byteLength": 79616,
      "uri": "scene.bin"
    }
  ],
  "images": [
    {
      "uri": "textures/Pill3_baseColor.png"
    },
    {
      "uri": "textures/Pill3_metallicRoughness.png"
    },
    {
      "uri": "textures/Pill3_normal.png"
    },
    {
      "uri": "textures/Material_24_baseColor.png"
    },
    {
      "uri": "textures/Material_24_metallicRoughness.png"
    },
    {
      "uri": "textures/Material_24_normal.png"
    }
  ],
  "materials": [
    {
      "doubleSided": true,
      "name": "Pill3",
      "normalTexture": {
        "index": 2
      },
      "occlusionTexture": {
        "index": 1
      },
      "pbrMetallicRoughness": {
        "baseColorTexture": {
          "index": 0
        },
        "metallicRoughnessTexture": {
          "index": 1
        }
      }
    },
    {
      "name": "Material_24",
      "normalTexture": {
        "index": 5
      },
      "occlusionTexture": {
        "index": 4
      },
      "pbrMetallicRoughness": {
        "baseColorTexture": {
          "index": 3
        },
        "metallicRoughnessTexture": {
          "index": 4
        }
      }
    }
  ],
  "meshes": [
    {
      "name": "Pill3_Pill3_0",
      "primitives": [
        {
          "attributes": {
            "NORMAL": 1,
            "POSITION": 0,
            "TANGENT": 2,
            "TEXCOORD_0": 3,
            "TEXCOORD_1": 4,
            "TEXCOORD_2": 5
          },
          "indices": 6,
          "material": 0,
          "mode": 4
        }
      ]
    },
    {
      "name": "Pill4_Material #24_0",
      "primitives": [
        {
          "attributes": {
            "NORMAL": 8,
            "POSITION": 7,
            "TANGENT": 9,
            "TEXCOORD_0": 10,
            "TEXCOORD_1": 11,
            "TEXCOORD_2": 12
          },
          "indices": 13,
          "material": 1,
          "mode": 4
        }
      ]
    }
  ],
  "nodes": [
    {
      "children": [
        1
      ],
      "matrix": [
        1.0,
        0.0,
        0.0,
        0.0,
        0.0,
        2.220446049250313e-16,
        -1.0,
        0.0,
        0.0,
        1.0,
        2.220446049250313e-16,
        0.0,
        0.0,
        0.0,
        0.0,
        1.0
      ],
      "name": "Sketchfab_model"
    },
    {
      "children": [
        2
      ],
      "matrix": [
        0.02539999969303608,
        0.0,
        0.0,
        0.0,
        0.0,
        0.0,
        0.02539999969303608,
        0.0,
        0.0,
        -0.02539999969303608,
        0.0,
        0.0,
        0.0,
        0.0,
        0.0,
        1.0
      ],
      "name": "57467a747b6b48a6b6ab702891d1a315.fbx"
    },
    {
      "children": [
        3,
        5
      ],
      "name": "RootNode"
    },
    {
      "children": [
        4
      ],
      "matrix": [
        0.49999995856927726,
        -5.551115123125783e-17,
        0.8660254277044761,
        0.0,
        0.8660254277044761,
        2.220446049250313e-16,
        -0.4999999585692771,
        0.0,
        -5.551115123125783e-17,
        0.9999999999999998,
        2.220446049250313e-16,
        0.0,
        0.20877791941165924,
        4.8970690613714396e-08,
        -0.17341184616088867,
        1.0
      ],
      "name": "Pill3"
    },
    {
      "mesh": 0,
      "name": "Pill3_Pill3_0"
    },
    {
      "children": [
        6
      ],
      "matrix": [
        -0.8191520699556512,
        1.6653345369377348e-16,
        -0.5735763996952561,
        0.0,
        -0.5735763996952561,
        -2.220446049250313e-16,
        0.819152069955651,
        0.0,
        5.551115123125783e-17,
        1.0,
        1.1102230246251565e-16,
        0.0,
        -0.20877788960933685,
        4.8970690613714396e-08,
        0.17341184616088867,
        1.0
      ],
      "name": "Pill4"
    },
    {
      "mesh": 1,
      "name": "Pill4_Material #24_0"
    }
  ],
  "samplers": [
    {
      "magFilter": 9729,
      "minFilter": 9987,
      "wrapS": 10497,
      "wrapT": 10497
    }
  ],
  "scene": 0,
  "scenes": [
    {
      "name": "Sketchfab_Scene",
      "nodes": [
        0
      ]
    }
  ],
  "textures": [
    {
      "sampler": 0,
      "source": 0
    },
    {
      "sampler": 0,
      "source": 1
    },
    {
      "sampler": 0,
      "source": 2
    },
    {
      "sampler": 0,
      "source": 3
    },
    {
      "sampler": 0,
      "source": 4
    },
    {
      "sampler": 0,
      "source": 5
    }
  ]
}
