{
  "accessors": [
    {
      "bufferView": 2,
      "componentType": 5126,
      "count": 1029,
      "max": [
        4.0970001220703125,
        4.756965637207031,
        -0.086334228515625
      ],
      "min": [
        -3.9860916137695313,
        1.722442626953125,
        -4.176200866699219
      ],
      "type": "VEC3"
    },
    {
      "bufferView": 2,
      "byteOffset": 12348,
      "componentType": 5126,
      "count": 1029,
      "max": [
        0.9769969582557678,
        0.9998511672019958,
        0.9992060661315918
      ],
      "min": [
        -0.9915276765823364,
        -0.999488890171051,
        -0.9995051026344299
      ],
      "type": "VEC3"
    },
    {
      "bufferView": 3,
      "componentType": 5126,
      "count": 1029,
      "max": [
        0.7546775341033936,
        0.9776591062545776,
        0.9167692065238953,
        1.0
      ],
      "min": [
        -0.9997230172157288,
        -0.9403752088546753,
        -0.9611838459968567,
        -1.0
      ],
      "type": "VEC4"
    },
    {
      "bufferView": 1,
      "componentType": 5126,
      "count": 1029,
      "max": [
        0.9936410188674927,
        0.8806989789009094
      ],
      "min": [
        0.017371999099850655,
        0.010968029499053955
      ],
      "type": "VEC2"
    },
    {
      "bufferView": 1,
      "byteOffset": 8232,
      "componentType": 5126,
      "count": 1029,
      "max": [
        0.9936410188674927,
        0.8806989789009094
      ],
      "min": [
        0.017371999099850655,
        0.010968029499053955
      ],
      "type": "VEC2"
    },
    {
      "bufferView": 1,
      "byteOffset": 16464,
      "componentType": 5126,
      "count": 1029,
      "max": [
        0.9936410188674927,
        0.8806989789009094
      ],
      "min": [
        0.017371999099850655,
        0.010968029499053955
      ],
      "type": "VEC2"
    },
    {
      "bufferView": 1,
      "byteOffset": 24696,
      "componentType": 5126,
      "count": 1029,
      "max": [
        0.9936410188674927,
        0.8806989789009094
      ],
      "min": [
        0.017371999099850655,
        0.010968029499053955
      ],
      "type": "VEC2"
    },
    {
      "bufferView": 1,
      "byteOffset": 32928,
      "componentType": 5126,
      "count": 1029,
      "max": [
        0.9936410188674927,
        0.8806989789009094
      ],
      "min": [
        0.017371999099850655,
        0.010968029499053955
      ],
      "type": "VEC2"
    },
    {
      "bufferView": 0,
      "componentType": 5125,
      "count": 4458,
      "type": "SCALAR"
    },
    {
      "bufferView": 2,
      "byteOffset": 24696,
      "componentType": 5126,
      "count": 16820,
      "max": [
        2.6391220092773438,
        7.3472137451171875,
        3.918670654296875
      ],
      "min": [
        -1.38555908203125,
        -0.21279144287109375,
        -2.829437255859375
      ],
      "type": "VEC3"
    },
    {
      "bufferView": 2,
      "byteOffset": 226536,
      "componentType": 5126,
      "count": 16820,
      "max": [
        0.9999051094055176,
        0.9999579787254333,
        0.9999310374259949
      ],
      "min": [
        -0.9999740719795227,
        -0.9997702240943909,
        -0.9998538494110107
      ],
      "type": "VEC3"
    },
    {
      "bufferView": 3,
      "byteOffset": 16464,
      "componentType": 5126,
      "count": 16820,
      "max": [
        0.9999299645423889,
        0.9999428391456604,
        0.9995214343070984,
        1.0
      ],
      "min": [
        -0.9998937249183655,
        -0.999711811542511,
        -0.999988317489624,
        -1.0
      ],
      "type": "VEC4"
    },
    {
      "bufferView": 1,
      "byteOffset": 41160,
      "componentType": 5126,
      "count": 16820,
      "max": [
        0.99126797914505,
        0.9942600131034851
      ],
      "min": [
        0.0029509998857975006,
        0.0043089985847473145
      ],
      "type": "VEC2"
    },
    {
      "bufferView": 1,
      "byteOffset": 175720,
      "componentType": 5126,
      "count": 16820,
      "max": [
        0.99126797914505,
        0.9942600131034851
      ],
      "min": [
        0.0029509998857975006,
        0.0043089985847473145
      ],
      "type": "VEC2"
    },
    {
      "bufferView": 1,
      "byteOffset": 310280,
      "componentType": 5126,
      "count": 16820,
      "max": [
        0.99126797914505,
        0.9942600131034851
      ],
      "min": [
        0.0029509998857975006,
        0.0043089985847473145
      ],
      "type": "VEC2"
    },
    {
      "bufferView": 1,
      "byteOffset": 444840,
      "componentType": 5126,
      "count": 16820,
      "max": [
        0.99126797914505,
        0.9942600131034851
      ],
      "min": [
        0.0029509998857975006,
        0.0043089985847473145
      ],
      "type": "VEC2"
    },
    {
      "bufferView": 1,
      "byteOffset": 579400,
      "componentType": 5126,
      "count": 16820,
      "max": [
        0.99126797914505,
        0.9942600131034851
      ],
      "min": [
        0.0029509998857975006,
        0.0043089985847473145
      ],
      "type": "VEC2"
    },
    {
      "bufferView": 0,
      "byteOffset": 17832,
      "componentType": 5125,
      "count": 58653,
      "type": "SCALAR"
    }
  ],
  "asset": {
    "extras": {
      "author": "Damn_Daniel (https://sketchfab.com/rajput.1561)",
      "license": "CC-BY-4.0 (http://creativecommons.org/licenses/by/4.0/)",
      "source": "https://sketchfab.com/3d-models/reaper-ghost-07947df1615943838c439eb66cd853a7",
      "title": "Reaper Ghost"
    },
    "generator": "Sketchfab-16.16.0",
    "version": "2.0"
  },
  "bufferViews": [
    {
      "buffer": 0,
      "byteLength": 252444,
      "name": "floatBufferViews",
      "target": 34963
    },
    {
      "buffer": 0,
      "byteLength": 713960,
      "byteOffset": 252444,
      "byteStride": 8,
      "name": "floatBufferViews",
      "target": 34962
    },
    {
      "buffer": 0,
      "byteLength": 428376,
      "byteOffset": 966404,
      "byteStride": 12,
      "name": "floatBufferViews",
      "target": 34962
    },
    {
      "buffer": 0,
      "byteLength": 285584,
      "byteOffset": 1394780,
      "byteStride": 16,
      "name": "floatBufferViews",
      "target": 34962
    }
  ],
  "buffers": [
    {
      "byteLength": 1680364,
      "uri": "scene.bin"
    }
  ],
  "extensionsRequired": [
    "KHR_materials_pbrSpecularGlossiness"
  ],
  "extensionsUsed": [
    "KHR_materials_pbrSpecularGlossiness"
  ],
  "images": [
    {
      "uri": "textures/material_0_diffuse.png"
    },
    {
      "uri": "textures/material_0_specularGlossiness.png"
    },
    {
      "uri": "textures/material_0_normal.png"
    },
    {
      "uri": "textures/material_0_occlusion.png"
    },
    {
      "uri": "textures/material_1_diffuse.png"
    },
    {
      "uri": "textures/material_1_specularGlossiness.png"
    },
    {
      "uri": "textures/material_1_normal.png"
    },
    {
      "uri": "textures/material_1_occlusion.png"
    }
  ],
  "materials": [
    {
      "doubleSided": true,
      "extensions": {
        "KHR_materials_pbrSpecularGlossiness": {
          "diffuseFactor": [
            1.0,
            1.0,
            1.0,
            1.0
          ],
          "diffuseTexture": {
            "index": 0
          },
          "glossinessFactor": 1.0,
          "specularFactor": [
            1.0,
            1.0,
            1.0
          ],
          "specularGlossinessTexture": {
            "index": 1
          }
        }
      },
      "name": "material_0",
      "normalTexture": {
        "index": 2
      },
      "occlusionTexture": {
        "index": 3
      }
    },
    {
      "alphaMode": "MASK",
      "doubleSided": true,
      "extensions": {
        "KHR_materials_pbrSpecularGlossiness": {
          "diffuseFactor": [
            1.0,
            1.0,
            1.0,
            1.0
          ],
          "diffuseTexture": {
            "index": 4
          },
          "glossinessFactor": 1.0,
          "specularFactor": [
            1.0,
            1.0,
            1.0
          ],
          "specularGlossinessTexture": {
            "index": 5
          }
        }
      },
      "name": "material_1",
      "normalTexture": {
        "index": 6
      },
      "occlusionTexture": {
        "index": 7
      }
    }
  ],
  "meshes": [
    {
      "name": "Object_0",
      "primitives": [
        {
          "attributes": {
            "NORMAL": 1,
            "POSITION": 0,
            "TANGENT": 2,
            "TEXCOORD_0": 3,
            "TEXCOORD_1": 4,
            "TEXCOORD_2": 5,
            "TEXCOORD_3": 6,
            "TEXCOORD_4": 7
          },
          "indices": 8,
          "material": 0,
          "mode": 4
        }
      ]
    },
    {
      "name": "Object_1",
      "primitives": [
        {
          "attributes": {
            "NORMAL": 10,
            "POSITION": 9,
            "TANGENT": 11,
            "TEXCOORD_0": 12,
            "TEXCOORD_1": 13,
            "TEXCOORD_2": 14,
            "TEXCOORD_3": 15,
            "TEXCOORD_4": 16
          },
          "indices": 17,
          "material": 1,
          "mode": 4
        }
      ]
    }
  ],
  "nodes": [
    {
      "children": [
        1
      ],
      "matrix": [
        1.0,
        0.0,
        0.0,
        0.0,
        0.0,
        2.220446049250313e-16,
        -1.0,
        0.0,
        0.0,
        1.0,
        2.220446049250313e-16,
        0.0,
        0.0,
        0.0,
        0.0,
        1.0
      ],
      "name": "Sketchfab_model"
    },
    {
      "children": [
        2
      ],
      "name": "root"
    },
    {
      "children": [
        3
      ],
      "matrix": [
        1.0,
        0.0,
        0.0,
        0.0,
        0.0,
        2.220446049250313e-16,
        1.0,
        0.0,
        0.0,
        -1.0,
        2.220446049250313e-16,
        0.0,
        0.0,
        0.0,
        0.0,
        1.0
      ],
      "name": "GLTF_SceneRootNode"
    },
    {
      "children": [
        4,
        6
      ],
      "matrix": [
        0.009999999776482582,
        0.0,
        0.0,
        0.0,
        0.0,
        0.009999999776482582,
        0.0,
        0.0,
        0.0,
        0.0,
        0.009999999776482582,
        0.0,
        0.0,
        0.0,
        0.0,
        1.0
      ],
      "name": "RootNode.0_0"
    },
    {
      "children": [
        5
      ],
      "name": "judge_reaper_scythe.1_1"
    },
    {
      "mesh": 0,
      "name": "Object_5"
    },
    {
      "children": [
        7
      ],
      "name": "judge_reaper_body.2_2"
    },
    {
      "mesh": 1,
      "name": "Object_7"
    }
  ],
  "samplers": [
    {
      "magFilter": 9729,
      "minFilter": 9987,
      "wrapS": 10497,
      "wrapT": 10497
    }
  ],
  "scene": 0,
  "scenes": [
    {
      "name": "Sketchfab_Scene",
      "nodes": [
        0
      ]
    }
  ],
  "textures": [
    {
      "sampler": 0,
      "source": 0
    },
    {
      "sampler": 0,
      "source": 1
    },
    {
      "sampler": 0,
      "source": 2
    },
    {
      "sampler": 0,
      "source": 3
    },
    {
      "sampler": 0,
      "source": 4
    },
    {
      "sampler": 0,
      "source": 5
    },
    {
      "sampler": 0,
      "source": 6
    },
    {
      "sampler": 0,
      "source": 7
    }
  ]
}
