{
  "accessors": [
    {
      "bufferView": 2,
      "componentType": 5126,
      "count": 265,
      "max": [
        0.15150590240955353,
        0.08150000125169754,
        0.029777228832244873
      ],
      "min": [
        -0.11979410797357559,
        -0.35519999265670776,
        -0.470122754573822
      ],
      "type": "VEC3"
    },
    {
      "bufferView": 2,
      "byteOffset": 3180,
      "componentType": 5126,
      "count": 265,
      "max": [
        0.9671292901039124,
        0.9996562004089355,
        0.9982174634933472
      ],
      "min": [
        -0.9895281791687012,
        -0.999208927154541,
        -0.9266141057014465
      ],
      "type": "VEC3"
    },
    {
      "bufferView": 1,
      "componentType": 5126,
      "count": 265,
      "max": [
        0.9986000061035156,
        0.9986000061035156
      ],
      "min": [
        0.0027000000700354576,
        0.0031999999191612005
      ],
      "type": "VEC2"
    },
    {
      "bufferView": 0,
      "componentType": 5125,
      "count": 768,
      "type": "SCALAR"
    },
    {
      "bufferView": 2,
      "byteOffset": 6360,
      "componentType": 5126,
      "count": 1638,
      "max": [
        0.1504058986902237,
        0.22369998693466187,
        0.13237720727920532
      ],
      "min": [
        -0.09169410914182663,
        -0.2532999813556671,
        -0.41682273149490356
      ],
      "type": "VEC3"
    },
    {
      "bufferView": 2,
      "byteOffset": 26016,
      "componentType": 5126,
      "count": 1638,
      "max": [
        0.9980787038803101,
        0.9986466765403748,
        0.9977251291275024
      ],
      "min": [
        -0.9997830390930176,
        -0.9995548725128174,
        -0.9989897608757019
      ],
      "type": "VEC3"
    },
    {
      "bufferView": 1,
      "byteOffset": 2120,
      "componentType": 5126,
      "count": 1638,
      "max": [
        0.9976000189781189,
        0.9958999752998352
      ],
      "min": [
        0.0008999999845400453,
        0.0010999999940395355
      ],
      "type": "VEC2"
    },
    {
      "bufferView": 0,
      "byteOffset": 3072,
      "componentType": 5125,
      "count": 5409,
      "type": "SCALAR"
    }
  ],
  "asset": {
    "extras": {
      "author": "3DMAN (https://sketchfab.com/3dmanx888)",
      "license": "CC-BY-4.0 (http://creativecommons.org/licenses/by/4.0/)",
      "source": "https://sketchfab.com/3d-models/dark-death-e115bcb4290742c9b48119f746236651",
      "title": "DARK DEATH"
    },
    "generator": "Sketchfab-12.66.0",
    "version": "2.0"
  },
  "bufferViews": [
    {
      "buffer": 0,
      "byteLength": 24708,
      "name": "floatBufferViews",
      "target": 34963
    },
    {
      "buffer": 0,
      "byteLength": 15224,
      "byteOffset": 24708,
      "byteStride": 8,
      "name": "floatBufferViews",
      "target": 34962
    },
    {
      "buffer": 0,
      "byteLength": 45672,
      "byteOffset": 39932,
      "byteStride": 12,
      "name": "floatBufferViews",
      "target": 34962
    }
  ],
  "buffers": [
    {
      "byteLength": 85604,
      "uri": "scene.bin"
    }
  ],
  "images": [
    {
      "uri": "textures/e515ec87_dds_baseColor.png"
    },
    {
      "uri": "textures/1fe5703d_dds_baseColor.png"
    }
  ],
  "materials": [
    {
      "alphaCutoff": 0.013870395028850423,
      "alphaMode": "MASK",
      "doubleSided": true,
      "name": "e515ec87_dds",
      "pbrMetallicRoughness": {
        "baseColorTexture": {
          "index": 0
        },
        "metallicFactor": 0.0,
        "roughnessFactor": 0.894591
      }
    },
    {
      "doubleSided": true,
      "name": "1fe5703d_dds",
      "pbrMetallicRoughness": {
        "baseColorTexture": {
          "index": 1
        },
        "metallicFactor": 0.0,
        "roughnessFactor": 0.894591
      }
    }
  ],
  "meshes": [
    {
      "name": "Object_0",
      "primitives": [
        {
          "attributes": {
            "NORMAL": 1,
            "POSITION": 0,
            "TEXCOORD_0": 2
          },
          "indices": 3,
          "material": 0,
          "mode": 4
        }
      ]
    },
    {
      "name": "Object_1",
      "primitives": [
        {
          "attributes": {
            "NORMAL": 5,
            "POSITION": 4,
            "TEXCOORD_0": 6
          },
          "indices": 7,
          "material": 1,
          "mode": 4
        }
      ]
    }
  ],
  "nodes": [
    {
      "children": [
        1
      ],
      "matrix": [
        1.0,
        0.0,
        0.0,
        0.0,
        0.0,
        2.220446049250313e-16,
        -1.0,
        0.0,
        0.0,
        1.0,
        2.220446049250313e-16,
        0.0,
        0.0,
        0.0,
        0.0,
        1.0
      ],
      "name": "Sketchfab_model"
    },
    {
      "children": [
        2
      ],
      "name": "root"
    },
    {
      "children": [
        3
      ],
      "matrix": [
        1.0,
        0.0,
        0.0,
        0.0,
        0.0,
        2.220446049250313e-16,
        1.0,
        0.0,
        0.0,
        -1.0,
        2.220446049250313e-16,
        0.0,
        0.0,
        0.0,
        0.0,
        1.0
      ],
      "name": "GLTF_SceneRootNode"
    },
    {
      "children": [
        4,
        5
      ],
      "matrix": [
        19.70162582397461,
        0.0,
        0.0,
        0.0,
        0.0,
        19.70162582397461,
        0.0,
        0.0,
        0.0,
        0.0,
        19.70162582397461,
        0.0,
        0.008994108065962791,
        3.7787857055664063,
        1.827747106552124,
        1.0
      ],
      "name": "night_2"
    },
    {
      "mesh": 0,
      "name": "Object_4"
    },
    {
      "mesh": 1,
      "name": "Object_5"
    }
  ],
  "samplers": [
    {
      "magFilter": 9729,
      "minFilter": 9987,
      "wrapS": 10497,
      "wrapT": 10497
    }
  ],
  "scene": 0,
  "scenes": [
    {
      "name": "Sketchfab_Scene",
      "nodes": [
        0
      ]
    }
  ],
  "textures": [
    {
      "sampler": 0,
      "source": 0
    },
    {
      "sampler": 0,
      "source": 1
    }
  ]
}
